<svg width="42" height="41" viewBox="0 0 42 41" fill="none" xmlns="http://www.w3.org/2000/svg">
<path d="M33.7969 22.6406H8.20312C4.57874 22.6406 1.64062 19.7025 1.64062 16.0781V6.23438C1.64062 4.42222 3.10972 2.95312 4.92188 2.95312H37.0781C38.8903 2.95312 40.3594 4.42222 40.3594 6.23438V16.0781C40.3594 19.7025 37.4213 22.6406 33.7969 22.6406Z" stroke="white" stroke-width="3" stroke-miterlimit="10" stroke-linecap="round" stroke-linejoin="round"/>
<path d="M8.20312 16.0781H33.7969" stroke="white" stroke-width="3" stroke-miterlimit="10" stroke-linecap="round" stroke-linejoin="round"/>
<path d="M11.1562 29.2031V35.7656C11.1562 37.5778 9.68715 39.0469 7.875 39.0469C6.06285 39.0469 4.59375 37.5778 4.59375 35.7656" stroke="white" stroke-width="3" stroke-miterlimit="10" stroke-linecap="round" stroke-linejoin="round"/>
<path d="M37.4062 35.7656C37.4062 37.5778 35.9372 39.0469 34.125 39.0469C32.3128 39.0469 30.8438 37.5778 30.8438 35.7656V29.2031" stroke="white" stroke-width="3" stroke-miterlimit="10" stroke-linecap="round" stroke-linejoin="round"/>
<path d="M24.2812 29.2031V35.7656" stroke="white" stroke-width="3" stroke-miterlimit="10" stroke-linecap="round" stroke-linejoin="round"/>
<path d="M17.7188 35.7656V29.2031" stroke="white" stroke-width="3" stroke-miterlimit="10" stroke-linecap="round" stroke-linejoin="round"/>
</svg>
