<svg width="32" height="39" viewBox="0 0 32 39" fill="none" xmlns="http://www.w3.org/2000/svg">
<path d="M15.8077 12.3223L13.9352 15.5773C13.5152 16.2948 13.8652 16.8898 14.6877 16.8898H16.9102C17.7502 16.8898 18.0827 17.4848 17.6627 18.2023L15.8077 21.4573" stroke="#000" stroke-width="3" stroke-linecap="round" stroke-linejoin="round"/>
<path d="M9.3325 30.0845V28.0545C5.3075 25.622 2 20.8795 2 15.8395C2 7.17697 9.9625 0.386967 18.9575 2.34697C22.9125 3.22197 26.3775 5.84697 28.18 9.46947C31.8375 16.8195 27.9875 24.6245 22.335 28.037V30.067C22.335 30.5745 22.5275 31.747 20.655 31.747H11.0125C9.0875 31.7645 9.3325 31.012 9.3325 30.0845Z" stroke="#000" stroke-width="3" stroke-linecap="round" stroke-linejoin="round"/>
<path d="M9.68262 37.0147C13.6901 35.8772 17.9251 35.8772 21.9326 37.0147" stroke="#000" stroke-width="3" stroke-linecap="round" stroke-linejoin="round"/>
</svg>
